solid cylinder
   facet normal -9.972038e-01 7.473042e-02 0.000000e+00
      outer loop
         vertex 0.000000e+00 7.620000e+01 0.000000e+00
         vertex 8.510947e-01 8.755702e+01 4.064000e+02
         vertex 8.510947e-01 8.755702e+01 0.000000e+00
      endloop
   endfacet
   facet normal -9.749280e-01 2.225204e-01 0.000000e+00
      outer loop
         vertex 8.510947e-01 8.755702e+01 0.000000e+00
         vertex 8.510947e-01 8.755702e+01 4.064000e+02
         vertex 3.385350e+00 9.866035e+01 4.064000e+02
      endloop
   endfacet
   facet normal -9.749280e-01 2.225204e-01 0.000000e+00
      outer loop
         vertex 8.510947e-01 8.755702e+01 0.000000e+00
         vertex 3.385350e+00 9.866035e+01 4.064000e+02
         vertex 3.385350e+00 9.866035e+01 0.000000e+00
      endloop
   endfacet
   facet normal -9.308737e-01 3.653412e-01 0.000000e+00
      outer loop
         vertex 3.385350e+00 9.866035e+01 0.000000e+00
         vertex 3.385350e+00 9.866035e+01 4.064000e+02
         vertex 7.546172e+00 1.092619e+02 4.064000e+02
      endloop
   endfacet
   facet normal -9.308737e-01 3.653412e-01 0.000000e+00
      outer loop
         vertex 3.385350e+00 9.866035e+01 0.000000e+00
         vertex 7.546172e+00 1.092619e+02 4.064000e+02
         vertex 7.546172e+00 1.092619e+02 0.000000e+00
      endloop
   endfacet
   facet normal -8.660254e-01 5.000000e-01 0.000000e+00
      outer loop
         vertex 7.546172e+00 1.092619e+02 0.000000e+00
         vertex 7.546172e+00 1.092619e+02 4.064000e+02
         vertex 1.324061e+01 1.191250e+02 4.064000e+02
      endloop
   endfacet
   facet normal -8.660254e-01 5.000000e-01 0.000000e+00
      outer loop
         vertex 7.546172e+00 1.092619e+02 0.000000e+00
         vertex 1.324061e+01 1.191250e+02 4.064000e+02
         vertex 1.324061e+01 1.191250e+02 0.000000e+00
      endloop
   endfacet
   facet normal -7.818314e-01 6.234899e-01 0.000000e+00
      outer loop
         vertex 1.324061e+01 1.191250e+02 0.000000e+00
         vertex 1.324061e+01 1.191250e+02 4.064000e+02
         vertex 2.034145e+01 1.280292e+02 4.064000e+02
      endloop
   endfacet
   facet normal -7.818314e-01 6.234899e-01 0.000000e+00
      outer loop
         vertex 1.324061e+01 1.191250e+02 0.000000e+00
         vertex 2.034145e+01 1.280292e+02 4.064000e+02
         vertex 2.034145e+01 1.280292e+02 0.000000e+00
      endloop
   endfacet
   facet normal -6.801727e-01 7.330519e-01 0.000000e+00
      outer loop
         vertex 2.034145e+01 1.280292e+02 0.000000e+00
         vertex 2.034145e+01 1.280292e+02 4.064000e+02
         vertex 2.869008e+01 1.357756e+02 4.064000e+02
      endloop
   endfacet
   facet normal -6.801727e-01 7.330519e-01 0.000000e+00
      outer loop
         vertex 2.034145e+01 1.280292e+02 0.000000e+00
         vertex 2.869008e+01 1.357756e+02 4.064000e+02
         vertex 2.869008e+01 1.357756e+02 0.000000e+00
      endloop
   endfacet
   facet normal -5.633200e-01 8.262388e-01 0.000000e+00
      outer loop
         vertex 2.869008e+01 1.357756e+02 0.000000e+00
         vertex 2.869008e+01 1.357756e+02 4.064000e+02
         vertex 3.810000e+01 1.421911e+02 4.064000e+02
      endloop
   endfacet
   facet normal -5.633200e-01 8.262388e-01 0.000000e+00
      outer loop
         vertex 2.869008e+01 1.357756e+02 0.000000e+00
         vertex 3.810000e+01 1.421911e+02 4.064000e+02
         vertex 3.810000e+01 1.421911e+02 0.000000e+00
      endloop
   endfacet
   facet normal -4.338841e-01 9.009687e-01 0.000000e+00
      outer loop
         vertex 3.810000e+01 1.421911e+02 0.000000e+00
         vertex 3.810000e+01 1.421911e+02 4.064000e+02
         vertex 4.836101e+01 1.471326e+02 4.064000e+02
      endloop
   endfacet
   facet normal -4.338841e-01 9.009687e-01 0.000000e+00
      outer loop
         vertex 3.810000e+01 1.421911e+02 0.000000e+00
         vertex 4.836101e+01 1.471326e+02 4.064000e+02
         vertex 4.836101e+01 1.471326e+02 0.000000e+00
      endloop
   endfacet
   facet normal -2.947551e-01 9.555728e-01 0.000000e+00
      outer loop
         vertex 4.836101e+01 1.471326e+02 0.000000e+00
         vertex 4.836101e+01 1.471326e+02 4.064000e+02
         vertex 5.924391e+01 1.504895e+02 4.064000e+02
      endloop
   endfacet
   facet normal -2.947551e-01 9.555728e-01 0.000000e+00
      outer loop
         vertex 4.836101e+01 1.471326e+02 0.000000e+00
         vertex 5.924391e+01 1.504895e+02 4.064000e+02
         vertex 5.924391e+01 1.504895e+02 0.000000e+00
      endloop
   endfacet
   facet normal -1.490422e-01 9.888308e-01 0.000000e+00
      outer loop
         vertex 5.924391e+01 1.504895e+02 0.000000e+00
         vertex 5.924391e+01 1.504895e+02 4.064000e+02
         vertex 7.050557e+01 1.521869e+02 4.064000e+02
      endloop
   endfacet
   facet normal -1.490422e-01 9.888308e-01 0.000000e+00
      outer loop
         vertex 5.924391e+01 1.504895e+02 0.000000e+00
         vertex 7.050557e+01 1.521869e+02 4.064000e+02
         vertex 7.050557e+01 1.521869e+02 0.000000e+00
      endloop
   endfacet
   facet normal 0.000000e+00 1.000000e+00 0.000000e+00
      outer loop
         vertex 7.050557e+01 1.521869e+02 0.000000e+00
         vertex 7.050557e+01 1.521869e+02 4.064000e+02
         vertex 8.189443e+01 1.521869e+02 4.064000e+02
      endloop
   endfacet
   facet normal 0.000000e+00 1.000000e+00 0.000000e+00
      outer loop
         vertex 7.050557e+01 1.521869e+02 0.000000e+00
         vertex 8.189443e+01 1.521869e+02 4.064000e+02
         vertex 8.189443e+01 1.521869e+02 0.000000e+00
      endloop
   endfacet
   facet normal 1.490422e-01 9.888308e-01 -0.000000e+00
      outer loop
         vertex 8.189443e+01 1.521869e+02 0.000000e+00
         vertex 8.189443e+01 1.521869e+02 4.064000e+02
         vertex 9.315610e+01 1.504895e+02 4.064000e+02
      endloop
   endfacet
   facet normal 1.490422e-01 9.888308e-01 0.000000e+00
      outer loop
         vertex 8.189443e+01 1.521869e+02 0.000000e+00
         vertex 9.315610e+01 1.504895e+02 4.064000e+02
         vertex 9.315610e+01 1.504895e+02 0.000000e+00
      endloop
   endfacet
   facet normal 2.947551e-01 9.555728e-01 -0.000000e+00
      outer loop
         vertex 9.315610e+01 1.504895e+02 0.000000e+00
         vertex 9.315610e+01 1.504895e+02 4.064000e+02
         vertex 1.040390e+02 1.471326e+02 4.064000e+02
      endloop
   endfacet
   facet normal 2.947551e-01 9.555728e-01 0.000000e+00
      outer loop
         vertex 9.315610e+01 1.504895e+02 0.000000e+00
         vertex 1.040390e+02 1.471326e+02 4.064000e+02
         vertex 1.040390e+02 1.471326e+02 0.000000e+00
      endloop
   endfacet
   facet normal 4.338841e-01 9.009687e-01 -0.000000e+00
      outer loop
         vertex 1.040390e+02 1.471326e+02 0.000000e+00
         vertex 1.040390e+02 1.471326e+02 4.064000e+02
         vertex 1.143000e+02 1.421911e+02 4.064000e+02
      endloop
   endfacet
   facet normal 4.338841e-01 9.009687e-01 0.000000e+00
      outer loop
         vertex 1.040390e+02 1.471326e+02 0.000000e+00
         vertex 1.143000e+02 1.421911e+02 4.064000e+02
         vertex 1.143000e+02 1.421911e+02 0.000000e+00
      endloop
   endfacet
   facet normal 5.633200e-01 8.262388e-01 -0.000000e+00
      outer loop
         vertex 1.143000e+02 1.421911e+02 0.000000e+00
         vertex 1.143000e+02 1.421911e+02 4.064000e+02
         vertex 1.237099e+02 1.357756e+02 4.064000e+02
      endloop
   endfacet
   facet normal 5.633200e-01 8.262388e-01 0.000000e+00
      outer loop
         vertex 1.143000e+02 1.421911e+02 0.000000e+00
         vertex 1.237099e+02 1.357756e+02 4.064000e+02
         vertex 1.237099e+02 1.357756e+02 0.000000e+00
      endloop
   endfacet
   facet normal 6.801727e-01 7.330519e-01 -0.000000e+00
      outer loop
         vertex 1.237099e+02 1.357756e+02 0.000000e+00
         vertex 1.237099e+02 1.357756e+02 4.064000e+02
         vertex 1.320586e+02 1.280292e+02 4.064000e+02
      endloop
   endfacet
   facet normal 6.801727e-01 7.330519e-01 0.000000e+00
      outer loop
         vertex 1.237099e+02 1.357756e+02 0.000000e+00
         vertex 1.320586e+02 1.280292e+02 4.064000e+02
         vertex 1.320586e+02 1.280292e+02 0.000000e+00
      endloop
   endfacet
   facet normal 7.818314e-01 6.234899e-01 -0.000000e+00
      outer loop
         vertex 1.320586e+02 1.280292e+02 0.000000e+00
         vertex 1.320586e+02 1.280292e+02 4.064000e+02
         vertex 1.391594e+02 1.191250e+02 4.064000e+02
      endloop
   endfacet
   facet normal 7.818314e-01 6.234899e-01 0.000000e+00
      outer loop
         vertex 1.320586e+02 1.280292e+02 0.000000e+00
         vertex 1.391594e+02 1.191250e+02 4.064000e+02
         vertex 1.391594e+02 1.191250e+02 0.000000e+00
      endloop
   endfacet
   facet normal 8.660254e-01 5.000000e-01 -0.000000e+00
      outer loop
         vertex 1.391594e+02 1.191250e+02 0.000000e+00
         vertex 1.391594e+02 1.191250e+02 4.064000e+02
         vertex 1.448538e+02 1.092619e+02 4.064000e+02
      endloop
   endfacet
   facet normal 8.660254e-01 5.000000e-01 0.000000e+00
      outer loop
         vertex 1.391594e+02 1.191250e+02 0.000000e+00
         vertex 1.448538e+02 1.092619e+02 4.064000e+02
         vertex 1.448538e+02 1.092619e+02 0.000000e+00
      endloop
   endfacet
   facet normal 9.308737e-01 3.653412e-01 -0.000000e+00
      outer loop
         vertex 1.448538e+02 1.092619e+02 0.000000e+00
         vertex 1.448538e+02 1.092619e+02 4.064000e+02
         vertex 1.490147e+02 9.866035e+01 4.064000e+02
      endloop
   endfacet
   facet normal 9.308737e-01 3.653412e-01 0.000000e+00
      outer loop
         vertex 1.448538e+02 1.092619e+02 0.000000e+00
         vertex 1.490147e+02 9.866035e+01 4.064000e+02
         vertex 1.490147e+02 9.866035e+01 0.000000e+00
      endloop
   endfacet
   facet normal 9.749280e-01 2.225204e-01 -0.000000e+00
      outer loop
         vertex 1.490147e+02 9.866035e+01 0.000000e+00
         vertex 1.490147e+02 9.866035e+01 4.064000e+02
         vertex 1.515489e+02 8.755702e+01 4.064000e+02
      endloop
   endfacet
   facet normal 9.749280e-01 2.225204e-01 0.000000e+00
      outer loop
         vertex 1.490147e+02 9.866035e+01 0.000000e+00
         vertex 1.515489e+02 8.755702e+01 4.064000e+02
         vertex 1.515489e+02 8.755702e+01 0.000000e+00
      endloop
   endfacet
   facet normal 9.972038e-01 7.473042e-02 -0.000000e+00
      outer loop
         vertex 1.515489e+02 8.755702e+01 0.000000e+00
         vertex 1.515489e+02 8.755702e+01 4.064000e+02
         vertex 1.524000e+02 7.620000e+01 4.064000e+02
      endloop
   endfacet
   facet normal 9.972038e-01 7.473042e-02 0.000000e+00
      outer loop
         vertex 1.515489e+02 8.755702e+01 0.000000e+00
         vertex 1.524000e+02 7.620000e+01 4.064000e+02
         vertex 1.524000e+02 7.620000e+01 0.000000e+00
      endloop
   endfacet
   facet normal 9.972038e-01 -7.473042e-02 0.000000e+00
      outer loop
         vertex 1.524000e+02 7.620000e+01 0.000000e+00
         vertex 1.524000e+02 7.620000e+01 4.064000e+02
         vertex 1.515489e+02 6.484298e+01 4.064000e+02
      endloop
   endfacet
   facet normal 9.972038e-01 -7.473042e-02 0.000000e+00
      outer loop
         vertex 1.524000e+02 7.620000e+01 0.000000e+00
         vertex 1.515489e+02 6.484298e+01 4.064000e+02
         vertex 1.515489e+02 6.484298e+01 0.000000e+00
      endloop
   endfacet
   facet normal 9.749280e-01 -2.225204e-01 0.000000e+00
      outer loop
         vertex 1.515489e+02 6.484298e+01 0.000000e+00
         vertex 1.515489e+02 6.484298e+01 4.064000e+02
         vertex 1.490147e+02 5.373966e+01 4.064000e+02
      endloop
   endfacet
   facet normal 9.749280e-01 -2.225204e-01 0.000000e+00
      outer loop
         vertex 1.515489e+02 6.484298e+01 0.000000e+00
         vertex 1.490147e+02 5.373966e+01 4.064000e+02
         vertex 1.490147e+02 5.373966e+01 0.000000e+00
      endloop
   endfacet
   facet normal 9.308737e-01 -3.653412e-01 0.000000e+00
      outer loop
         vertex 1.490147e+02 5.373966e+01 0.000000e+00
         vertex 1.490147e+02 5.373966e+01 4.064000e+02
         vertex 1.448538e+02 4.313806e+01 4.064000e+02
      endloop
   endfacet
   facet normal 9.308737e-01 -3.653412e-01 0.000000e+00
      outer loop
         vertex 1.490147e+02 5.373966e+01 0.000000e+00
         vertex 1.448538e+02 4.313806e+01 4.064000e+02
         vertex 1.448538e+02 4.313806e+01 0.000000e+00
      endloop
   endfacet
   facet normal 8.660254e-01 -5.000000e-01 0.000000e+00
      outer loop
         vertex 1.448538e+02 4.313806e+01 0.000000e+00
         vertex 1.448538e+02 4.313806e+01 4.064000e+02
         vertex 1.391594e+02 3.327501e+01 4.064000e+02
      endloop
   endfacet
   facet normal 8.660254e-01 -5.000000e-01 0.000000e+00
      outer loop
         vertex 1.448538e+02 4.313806e+01 0.000000e+00
         vertex 1.391594e+02 3.327501e+01 4.064000e+02
         vertex 1.391594e+02 3.327501e+01 0.000000e+00
      endloop
   endfacet
   facet normal 7.818314e-01 -6.234899e-01 0.000000e+00
      outer loop
         vertex 1.391594e+02 3.327501e+01 0.000000e+00
         vertex 1.391594e+02 3.327501e+01 4.064000e+02
         vertex 1.320586e+02 2.437084e+01 4.064000e+02
      endloop
   endfacet
   facet normal 7.818314e-01 -6.234899e-01 0.000000e+00
      outer loop
         vertex 1.391594e+02 3.327501e+01 0.000000e+00
         vertex 1.320586e+02 2.437084e+01 4.064000e+02
         vertex 1.320586e+02 2.437084e+01 0.000000e+00
      endloop
   endfacet
   facet normal 6.801727e-01 -7.330519e-01 0.000000e+00
      outer loop
         vertex 1.320586e+02 2.437084e+01 0.000000e+00
         vertex 1.320586e+02 2.437084e+01 4.064000e+02
         vertex 1.237099e+02 1.662444e+01 4.064000e+02
      endloop
   endfacet
   facet normal 6.801727e-01 -7.330519e-01 0.000000e+00
      outer loop
         vertex 1.320586e+02 2.437084e+01 0.000000e+00
         vertex 1.237099e+02 1.662444e+01 4.064000e+02
         vertex 1.237099e+02 1.662444e+01 0.000000e+00
      endloop
   endfacet
   facet normal 5.633200e-01 -8.262388e-01 0.000000e+00
      outer loop
         vertex 1.237099e+02 1.662444e+01 0.000000e+00
         vertex 1.237099e+02 1.662444e+01 4.064000e+02
         vertex 1.143000e+02 1.020887e+01 4.064000e+02
      endloop
   endfacet
   facet normal 5.633200e-01 -8.262388e-01 0.000000e+00
      outer loop
         vertex 1.237099e+02 1.662444e+01 0.000000e+00
         vertex 1.143000e+02 1.020887e+01 4.064000e+02
         vertex 1.143000e+02 1.020887e+01 0.000000e+00
      endloop
   endfacet
   facet normal 4.338841e-01 -9.009687e-01 0.000000e+00
      outer loop
         vertex 1.143000e+02 1.020887e+01 0.000000e+00
         vertex 1.143000e+02 1.020887e+01 4.064000e+02
         vertex 1.040390e+02 5.267419e+00 4.064000e+02
      endloop
   endfacet
   facet normal 4.338841e-01 -9.009687e-01 0.000000e+00
      outer loop
         vertex 1.143000e+02 1.020887e+01 0.000000e+00
         vertex 1.040390e+02 5.267419e+00 4.064000e+02
         vertex 1.040390e+02 5.267419e+00 0.000000e+00
      endloop
   endfacet
   facet normal 2.947551e-01 -9.555728e-01 0.000000e+00
      outer loop
         vertex 1.040390e+02 5.267419e+00 0.000000e+00
         vertex 1.040390e+02 5.267419e+00 4.064000e+02
         vertex 9.315610e+01 1.910493e+00 4.064000e+02
      endloop
   endfacet
   facet normal 2.947551e-01 -9.555728e-01 0.000000e+00
      outer loop
         vertex 1.040390e+02 5.267419e+00 0.000000e+00
         vertex 9.315610e+01 1.910493e+00 4.064000e+02
         vertex 9.315610e+01 1.910493e+00 0.000000e+00
      endloop
   endfacet
   facet normal 1.490422e-01 -9.888308e-01 0.000000e+00
      outer loop
         vertex 9.315610e+01 1.910493e+00 0.000000e+00
         vertex 9.315610e+01 1.910493e+00 4.064000e+02
         vertex 8.189443e+01 2.130717e-01 4.064000e+02
      endloop
   endfacet
   facet normal 1.490422e-01 -9.888308e-01 0.000000e+00
      outer loop
         vertex 9.315610e+01 1.910493e+00 0.000000e+00
         vertex 8.189443e+01 2.130717e-01 4.064000e+02
         vertex 8.189443e+01 2.130717e-01 0.000000e+00
      endloop
   endfacet
   facet normal 0.000000e+00 -1.000000e+00 0.000000e+00
      outer loop
         vertex 8.189443e+01 2.130717e-01 0.000000e+00
         vertex 8.189443e+01 2.130717e-01 4.064000e+02
         vertex 7.050557e+01 2.130717e-01 4.064000e+02
      endloop
   endfacet
   facet normal 0.000000e+00 -1.000000e+00 0.000000e+00
      outer loop
         vertex 8.189443e+01 2.130717e-01 0.000000e+00
         vertex 7.050557e+01 2.130717e-01 4.064000e+02
         vertex 7.050557e+01 2.130717e-01 0.000000e+00
      endloop
   endfacet
   facet normal -1.490422e-01 -9.888308e-01 0.000000e+00
      outer loop
         vertex 7.050557e+01 2.130717e-01 0.000000e+00
         vertex 7.050557e+01 2.130717e-01 4.064000e+02
         vertex 5.924391e+01 1.910493e+00 4.064000e+02
      endloop
   endfacet
   facet normal -1.490422e-01 -9.888308e-01 0.000000e+00
      outer loop
         vertex 7.050557e+01 2.130717e-01 0.000000e+00
         vertex 5.924391e+01 1.910493e+00 4.064000e+02
         vertex 5.924391e+01 1.910493e+00 0.000000e+00
      endloop
   endfacet
   facet normal -2.947551e-01 -9.555728e-01 0.000000e+00
      outer loop
         vertex 5.924391e+01 1.910493e+00 0.000000e+00
         vertex 5.924391e+01 1.910493e+00 4.064000e+02
         vertex 4.836101e+01 5.267419e+00 4.064000e+02
      endloop
   endfacet
   facet normal -2.947551e-01 -9.555728e-01 0.000000e+00
      outer loop
         vertex 5.924391e+01 1.910493e+00 0.000000e+00
         vertex 4.836101e+01 5.267419e+00 4.064000e+02
         vertex 4.836101e+01 5.267419e+00 0.000000e+00
      endloop
   endfacet
   facet normal -4.338841e-01 -9.009687e-01 0.000000e+00
      outer loop
         vertex 4.836101e+01 5.267419e+00 0.000000e+00
         vertex 4.836101e+01 5.267419e+00 4.064000e+02
         vertex 3.810000e+01 1.020887e+01 4.064000e+02
      endloop
   endfacet
   facet normal -4.338841e-01 -9.009687e-01 0.000000e+00
      outer loop
         vertex 4.836101e+01 5.267419e+00 0.000000e+00
         vertex 3.810000e+01 1.020887e+01 4.064000e+02
         vertex 3.810000e+01 1.020887e+01 0.000000e+00
      endloop
   endfacet
   facet normal -5.633200e-01 -8.262388e-01 0.000000e+00
      outer loop
         vertex 3.810000e+01 1.020887e+01 0.000000e+00
         vertex 3.810000e+01 1.020887e+01 4.064000e+02
         vertex 2.869008e+01 1.662444e+01 4.064000e+02
      endloop
   endfacet
   facet normal -5.633200e-01 -8.262388e-01 0.000000e+00
      outer loop
         vertex 3.810000e+01 1.020887e+01 0.000000e+00
         vertex 2.869008e+01 1.662444e+01 4.064000e+02
         vertex 2.869008e+01 1.662444e+01 0.000000e+00
      endloop
   endfacet
   facet normal -6.801727e-01 -7.330519e-01 0.000000e+00
      outer loop
         vertex 2.869008e+01 1.662444e+01 0.000000e+00
         vertex 2.869008e+01 1.662444e+01 4.064000e+02
         vertex 2.034145e+01 2.437084e+01 4.064000e+02
      endloop
   endfacet
   facet normal -6.801727e-01 -7.330519e-01 0.000000e+00
      outer loop
         vertex 2.869008e+01 1.662444e+01 0.000000e+00
         vertex 2.034145e+01 2.437084e+01 4.064000e+02
         vertex 2.034145e+01 2.437084e+01 0.000000e+00
      endloop
   endfacet
   facet normal -7.818314e-01 -6.234899e-01 0.000000e+00
      outer loop
         vertex 2.034145e+01 2.437084e+01 0.000000e+00
         vertex 2.034145e+01 2.437084e+01 4.064000e+02
         vertex 1.324061e+01 3.327501e+01 4.064000e+02
      endloop
   endfacet
   facet normal -7.818314e-01 -6.234899e-01 0.000000e+00
      outer loop
         vertex 2.034145e+01 2.437084e+01 0.000000e+00
         vertex 1.324061e+01 3.327501e+01 4.064000e+02
         vertex 1.324061e+01 3.327501e+01 0.000000e+00
      endloop
   endfacet
   facet normal -8.660254e-01 -5.000000e-01 0.000000e+00
      outer loop
         vertex 1.324061e+01 3.327501e+01 0.000000e+00
         vertex 1.324061e+01 3.327501e+01 4.064000e+02
         vertex 7.546172e+00 4.313806e+01 4.064000e+02
      endloop
   endfacet
   facet normal -8.660254e-01 -5.000000e-01 0.000000e+00
      outer loop
         vertex 1.324061e+01 3.327501e+01 0.000000e+00
         vertex 7.546172e+00 4.313806e+01 4.064000e+02
         vertex 7.546172e+00 4.313806e+01 0.000000e+00
      endloop
   endfacet
   facet normal -9.308737e-01 -3.653412e-01 0.000000e+00
      outer loop
         vertex 7.546172e+00 4.313806e+01 0.000000e+00
         vertex 7.546172e+00 4.313806e+01 4.064000e+02
         vertex 3.385350e+00 5.373966e+01 4.064000e+02
      endloop
   endfacet
   facet normal -9.308737e-01 -3.653412e-01 0.000000e+00
      outer loop
         vertex 7.546172e+00 4.313806e+01 0.000000e+00
         vertex 3.385350e+00 5.373966e+01 4.064000e+02
         vertex 3.385350e+00 5.373966e+01 0.000000e+00
      endloop
   endfacet
   facet normal -9.749280e-01 -2.225204e-01 0.000000e+00
      outer loop
         vertex 3.385350e+00 5.373966e+01 0.000000e+00
         vertex 3.385350e+00 5.373966e+01 4.064000e+02
         vertex 8.510947e-01 6.484298e+01 4.064000e+02
      endloop
   endfacet
   facet normal -9.749280e-01 -2.225204e-01 0.000000e+00
      outer loop
         vertex 3.385350e+00 5.373966e+01 0.000000e+00
         vertex 8.510947e-01 6.484298e+01 4.064000e+02
         vertex 8.510947e-01 6.484298e+01 0.000000e+00
      endloop
   endfacet
   facet normal -9.972038e-01 -7.473042e-02 0.000000e+00
      outer loop
         vertex 8.510947e-01 6.484298e+01 0.000000e+00
         vertex 8.510947e-01 6.484298e+01 4.064000e+02
         vertex 0.000000e+00 7.620000e+01 4.064000e+02
      endloop
   endfacet
   facet normal -9.972038e-01 -7.473042e-02 0.000000e+00
      outer loop
         vertex 8.510947e-01 6.484298e+01 0.000000e+00
         vertex 0.000000e+00 7.620000e+01 4.064000e+02
         vertex 0.000000e+00 7.620000e+01 0.000000e+00
      endloop
   endfacet
   facet normal -9.972038e-01 7.473042e-02 0.000000e+00
      outer loop
         vertex 0.000000e+00 7.620000e+01 0.000000e+00
         vertex 0.000000e+00 7.620000e+01 4.064000e+02
         vertex 8.510947e-01 8.755702e+01 4.064000e+02
      endloop
   endfacet
   facet normal 0.000000e+00 -0.000000e+00 1.000000e+00
      outer loop
         vertex 1.490147e+02 5.373966e+01 4.064000e+02
         vertex 1.515489e+02 6.484298e+01 4.064000e+02
         vertex 7.620000e+01 7.620000e+01 4.064000e+02
      endloop
   endfacet
   facet normal -0.000000e+00 0.000000e+00 1.000000e+00
      outer loop
         vertex 7.620000e+01 7.620000e+01 4.064000e+02
         vertex 1.515489e+02 6.484298e+01 4.064000e+02
         vertex 1.524000e+02 7.620000e+01 4.064000e+02
      endloop
   endfacet
   facet normal 0.000000e+00 0.000000e+00 1.000000e+00
      outer loop
         vertex 7.620000e+01 7.620000e+01 4.064000e+02
         vertex 1.524000e+02 7.620000e+01 4.064000e+02
         vertex 1.515489e+02 8.755702e+01 4.064000e+02
      endloop
   endfacet
   facet normal 0.000000e+00 -0.000000e+00 1.000000e+00
      outer loop
         vertex 1.320586e+02 2.437084e+01 4.064000e+02
         vertex 1.391594e+02 3.327501e+01 4.064000e+02
         vertex 7.620000e+01 7.620000e+01 4.064000e+02
      endloop
   endfacet
   facet normal 0.000000e+00 0.000000e+00 1.000000e+00
      outer loop
         vertex 7.620000e+01 7.620000e+01 4.064000e+02
         vertex 1.391594e+02 3.327501e+01 4.064000e+02
         vertex 1.448538e+02 4.313806e+01 4.064000e+02
      endloop
   endfacet
   facet normal 0.000000e+00 0.000000e+00 1.000000e+00
      outer loop
         vertex 7.620000e+01 7.620000e+01 4.064000e+02
         vertex 1.448538e+02 4.313806e+01 4.064000e+02
         vertex 1.490147e+02 5.373966e+01 4.064000e+02
      endloop
   endfacet
   facet normal 0.000000e+00 -0.000000e+00 1.000000e+00
      outer loop
         vertex 1.040390e+02 5.267419e+00 4.064000e+02
         vertex 1.143000e+02 1.020887e+01 4.064000e+02
         vertex 7.620000e+01 7.620000e+01 4.064000e+02
      endloop
   endfacet
   facet normal 0.000000e+00 0.000000e+00 1.000000e+00
      outer loop
         vertex 7.620000e+01 7.620000e+01 4.064000e+02
         vertex 1.143000e+02 1.020887e+01 4.064000e+02
         vertex 1.237099e+02 1.662444e+01 4.064000e+02
      endloop
   endfacet
   facet normal 0.000000e+00 0.000000e+00 1.000000e+00
      outer loop
         vertex 7.620000e+01 7.620000e+01 4.064000e+02
         vertex 1.237099e+02 1.662444e+01 4.064000e+02
         vertex 1.320586e+02 2.437084e+01 4.064000e+02
      endloop
   endfacet
   facet normal 0.000000e+00 0.000000e+00 1.000000e+00
      outer loop
         vertex 7.050557e+01 2.130717e-01 4.064000e+02
         vertex 8.189443e+01 2.130717e-01 4.064000e+02
         vertex 7.620000e+01 7.620000e+01 4.064000e+02
      endloop
   endfacet
   facet normal 0.000000e+00 0.000000e+00 1.000000e+00
      outer loop
         vertex 7.620000e+01 7.620000e+01 4.064000e+02
         vertex 8.189443e+01 2.130717e-01 4.064000e+02
         vertex 9.315610e+01 1.910493e+00 4.064000e+02
      endloop
   endfacet
   facet normal 0.000000e+00 0.000000e+00 1.000000e+00
      outer loop
         vertex 7.620000e+01 7.620000e+01 4.064000e+02
         vertex 9.315610e+01 1.910493e+00 4.064000e+02
         vertex 1.040390e+02 5.267419e+00 4.064000e+02
      endloop
   endfacet
   facet normal -0.000000e+00 0.000000e+00 1.000000e+00
      outer loop
         vertex 3.810000e+01 1.020887e+01 4.064000e+02
         vertex 4.836101e+01 5.267419e+00 4.064000e+02
         vertex 7.620000e+01 7.620000e+01 4.064000e+02
      endloop
   endfacet
   facet normal 0.000000e+00 0.000000e+00 1.000000e+00
      outer loop
         vertex 7.620000e+01 7.620000e+01 4.064000e+02
         vertex 4.836101e+01 5.267419e+00 4.064000e+02
         vertex 5.924391e+01 1.910493e+00 4.064000e+02
      endloop
   endfacet
   facet normal 0.000000e+00 0.000000e+00 1.000000e+00
      outer loop
         vertex 7.620000e+01 7.620000e+01 4.064000e+02
         vertex 5.924391e+01 1.910493e+00 4.064000e+02
         vertex 7.050557e+01 2.130717e-01 4.064000e+02
      endloop
   endfacet
   facet normal -0.000000e+00 0.000000e+00 1.000000e+00
      outer loop
         vertex 1.324061e+01 3.327501e+01 4.064000e+02
         vertex 2.034145e+01 2.437084e+01 4.064000e+02
         vertex 7.620000e+01 7.620000e+01 4.064000e+02
      endloop
   endfacet
   facet normal 0.000000e+00 0.000000e+00 1.000000e+00
      outer loop
         vertex 7.620000e+01 7.620000e+01 4.064000e+02
         vertex 2.034145e+01 2.437084e+01 4.064000e+02
         vertex 2.869008e+01 1.662444e+01 4.064000e+02
      endloop
   endfacet
   facet normal 0.000000e+00 0.000000e+00 1.000000e+00
      outer loop
         vertex 7.620000e+01 7.620000e+01 4.064000e+02
         vertex 2.869008e+01 1.662444e+01 4.064000e+02
         vertex 3.810000e+01 1.020887e+01 4.064000e+02
      endloop
   endfacet
   facet normal -0.000000e+00 0.000000e+00 1.000000e+00
      outer loop
         vertex 8.510947e-01 6.484298e+01 4.064000e+02
         vertex 3.385350e+00 5.373966e+01 4.064000e+02
         vertex 7.620000e+01 7.620000e+01 4.064000e+02
      endloop
   endfacet
   facet normal 0.000000e+00 0.000000e+00 1.000000e+00
      outer loop
         vertex 7.620000e+01 7.620000e+01 4.064000e+02
         vertex 3.385350e+00 5.373966e+01 4.064000e+02
         vertex 7.546172e+00 4.313806e+01 4.064000e+02
      endloop
   endfacet
   facet normal 0.000000e+00 0.000000e+00 1.000000e+00
      outer loop
         vertex 7.620000e+01 7.620000e+01 4.064000e+02
         vertex 7.546172e+00 4.313806e+01 4.064000e+02
         vertex 1.324061e+01 3.327501e+01 4.064000e+02
      endloop
   endfacet
   facet normal 0.000000e+00 0.000000e+00 1.000000e+00
      outer loop
         vertex 3.385350e+00 9.866035e+01 4.064000e+02
         vertex 8.510947e-01 8.755702e+01 4.064000e+02
         vertex 7.620000e+01 7.620000e+01 4.064000e+02
      endloop
   endfacet
   facet normal 0.000000e+00 0.000000e+00 1.000000e+00
      outer loop
         vertex 7.620000e+01 7.620000e+01 4.064000e+02
         vertex 8.510947e-01 8.755702e+01 4.064000e+02
         vertex 0.000000e+00 7.620000e+01 4.064000e+02
      endloop
   endfacet
   facet normal 0.000000e+00 0.000000e+00 1.000000e+00
      outer loop
         vertex 7.620000e+01 7.620000e+01 4.064000e+02
         vertex 0.000000e+00 7.620000e+01 4.064000e+02
         vertex 8.510947e-01 6.484298e+01 4.064000e+02
      endloop
   endfacet
   facet normal 0.000000e+00 0.000000e+00 1.000000e+00
      outer loop
         vertex 2.034145e+01 1.280292e+02 4.064000e+02
         vertex 1.324061e+01 1.191250e+02 4.064000e+02
         vertex 7.620000e+01 7.620000e+01 4.064000e+02
      endloop
   endfacet
   facet normal 0.000000e+00 0.000000e+00 1.000000e+00
      outer loop
         vertex 7.620000e+01 7.620000e+01 4.064000e+02
         vertex 1.324061e+01 1.191250e+02 4.064000e+02
         vertex 7.546172e+00 1.092619e+02 4.064000e+02
      endloop
   endfacet
   facet normal 0.000000e+00 0.000000e+00 1.000000e+00
      outer loop
         vertex 7.620000e+01 7.620000e+01 4.064000e+02
         vertex 7.546172e+00 1.092619e+02 4.064000e+02
         vertex 3.385350e+00 9.866035e+01 4.064000e+02
      endloop
   endfacet
   facet normal 0.000000e+00 0.000000e+00 1.000000e+00
      outer loop
         vertex 4.836101e+01 1.471326e+02 4.064000e+02
         vertex 3.810000e+01 1.421911e+02 4.064000e+02
         vertex 7.620000e+01 7.620000e+01 4.064000e+02
      endloop
   endfacet
   facet normal 0.000000e+00 0.000000e+00 1.000000e+00
      outer loop
         vertex 7.620000e+01 7.620000e+01 4.064000e+02
         vertex 3.810000e+01 1.421911e+02 4.064000e+02
         vertex 2.869008e+01 1.357756e+02 4.064000e+02
      endloop
   endfacet
   facet normal 0.000000e+00 0.000000e+00 1.000000e+00
      outer loop
         vertex 7.620000e+01 7.620000e+01 4.064000e+02
         vertex 2.869008e+01 1.357756e+02 4.064000e+02
         vertex 2.034145e+01 1.280292e+02 4.064000e+02
      endloop
   endfacet
   facet normal 0.000000e+00 0.000000e+00 1.000000e+00
      outer loop
         vertex 8.189443e+01 1.521869e+02 4.064000e+02
         vertex 7.050557e+01 1.521869e+02 4.064000e+02
         vertex 7.620000e+01 7.620000e+01 4.064000e+02
      endloop
   endfacet
   facet normal 0.000000e+00 0.000000e+00 1.000000e+00
      outer loop
         vertex 7.620000e+01 7.620000e+01 4.064000e+02
         vertex 7.050557e+01 1.521869e+02 4.064000e+02
         vertex 5.924391e+01 1.504895e+02 4.064000e+02
      endloop
   endfacet
   facet normal 0.000000e+00 0.000000e+00 1.000000e+00
      outer loop
         vertex 7.620000e+01 7.620000e+01 4.064000e+02
         vertex 5.924391e+01 1.504895e+02 4.064000e+02
         vertex 4.836101e+01 1.471326e+02 4.064000e+02
      endloop
   endfacet
   facet normal 0.000000e+00 0.000000e+00 1.000000e+00
      outer loop
         vertex 1.143000e+02 1.421911e+02 4.064000e+02
         vertex 1.040390e+02 1.471326e+02 4.064000e+02
         vertex 7.620000e+01 7.620000e+01 4.064000e+02
      endloop
   endfacet
   facet normal 0.000000e+00 0.000000e+00 1.000000e+00
      outer loop
         vertex 7.620000e+01 7.620000e+01 4.064000e+02
         vertex 1.040390e+02 1.471326e+02 4.064000e+02
         vertex 9.315610e+01 1.504895e+02 4.064000e+02
      endloop
   endfacet
   facet normal 0.000000e+00 0.000000e+00 1.000000e+00
      outer loop
         vertex 7.620000e+01 7.620000e+01 4.064000e+02
         vertex 9.315610e+01 1.504895e+02 4.064000e+02
         vertex 8.189443e+01 1.521869e+02 4.064000e+02
      endloop
   endfacet
   facet normal 0.000000e+00 0.000000e+00 1.000000e+00
      outer loop
         vertex 1.391594e+02 1.191250e+02 4.064000e+02
         vertex 1.320586e+02 1.280292e+02 4.064000e+02
         vertex 7.620000e+01 7.620000e+01 4.064000e+02
      endloop
   endfacet
   facet normal 0.000000e+00 0.000000e+00 1.000000e+00
      outer loop
         vertex 7.620000e+01 7.620000e+01 4.064000e+02
         vertex 1.320586e+02 1.280292e+02 4.064000e+02
         vertex 1.237099e+02 1.357756e+02 4.064000e+02
      endloop
   endfacet
   facet normal 0.000000e+00 0.000000e+00 1.000000e+00
      outer loop
         vertex 7.620000e+01 7.620000e+01 4.064000e+02
         vertex 1.237099e+02 1.357756e+02 4.064000e+02
         vertex 1.143000e+02 1.421911e+02 4.064000e+02
      endloop
   endfacet
   facet normal 0.000000e+00 0.000000e+00 1.000000e+00
      outer loop
         vertex 1.515489e+02 8.755702e+01 4.064000e+02
         vertex 1.490147e+02 9.866035e+01 4.064000e+02
         vertex 7.620000e+01 7.620000e+01 4.064000e+02
      endloop
   endfacet
   facet normal 0.000000e+00 0.000000e+00 1.000000e+00
      outer loop
         vertex 7.620000e+01 7.620000e+01 4.064000e+02
         vertex 1.490147e+02 9.866035e+01 4.064000e+02
         vertex 1.448538e+02 1.092619e+02 4.064000e+02
      endloop
   endfacet
   facet normal 0.000000e+00 0.000000e+00 1.000000e+00
      outer loop
         vertex 7.620000e+01 7.620000e+01 4.064000e+02
         vertex 1.448538e+02 1.092619e+02 4.064000e+02
         vertex 1.391594e+02 1.191250e+02 4.064000e+02
      endloop
   endfacet
   facet normal 0.000000e+00 -0.000000e+00 -1.000000e+00
      outer loop
         vertex 1.490147e+02 9.866035e+01 0.000000e+00
         vertex 1.515489e+02 8.755702e+01 0.000000e+00
         vertex 7.620000e+01 7.620000e+01 0.000000e+00
      endloop
   endfacet
   facet normal 0.000000e+00 0.000000e+00 -1.000000e+00
      outer loop
         vertex 7.620000e+01 7.620000e+01 0.000000e+00
         vertex 1.515489e+02 8.755702e+01 0.000000e+00
         vertex 1.524000e+02 7.620000e+01 0.000000e+00
      endloop
   endfacet
   facet normal 0.000000e+00 0.000000e+00 -1.000000e+00
      outer loop
         vertex 7.620000e+01 7.620000e+01 0.000000e+00
         vertex 1.524000e+02 7.620000e+01 0.000000e+00
         vertex 1.515489e+02 6.484298e+01 0.000000e+00
      endloop
   endfacet
   facet normal 0.000000e+00 -0.000000e+00 -1.000000e+00
      outer loop
         vertex 1.320586e+02 1.280292e+02 0.000000e+00
         vertex 1.391594e+02 1.191250e+02 0.000000e+00
         vertex 7.620000e+01 7.620000e+01 0.000000e+00
      endloop
   endfacet
   facet normal 0.000000e+00 0.000000e+00 -1.000000e+00
      outer loop
         vertex 7.620000e+01 7.620000e+01 0.000000e+00
         vertex 1.391594e+02 1.191250e+02 0.000000e+00
         vertex 1.448538e+02 1.092619e+02 0.000000e+00
      endloop
   endfacet
   facet normal 0.000000e+00 0.000000e+00 -1.000000e+00
      outer loop
         vertex 7.620000e+01 7.620000e+01 0.000000e+00
         vertex 1.448538e+02 1.092619e+02 0.000000e+00
         vertex 1.490147e+02 9.866035e+01 0.000000e+00
      endloop
   endfacet
   facet normal 0.000000e+00 -0.000000e+00 -1.000000e+00
      outer loop
         vertex 1.040390e+02 1.471326e+02 0.000000e+00
         vertex 1.143000e+02 1.421911e+02 0.000000e+00
         vertex 7.620000e+01 7.620000e+01 0.000000e+00
      endloop
   endfacet
   facet normal 0.000000e+00 0.000000e+00 -1.000000e+00
      outer loop
         vertex 7.620000e+01 7.620000e+01 0.000000e+00
         vertex 1.143000e+02 1.421911e+02 0.000000e+00
         vertex 1.237099e+02 1.357756e+02 0.000000e+00
      endloop
   endfacet
   facet normal 0.000000e+00 0.000000e+00 -1.000000e+00
      outer loop
         vertex 7.620000e+01 7.620000e+01 0.000000e+00
         vertex 1.237099e+02 1.357756e+02 0.000000e+00
         vertex 1.320586e+02 1.280292e+02 0.000000e+00
      endloop
   endfacet
   facet normal 0.000000e+00 0.000000e+00 -1.000000e+00
      outer loop
         vertex 7.050557e+01 1.521869e+02 0.000000e+00
         vertex 8.189443e+01 1.521869e+02 0.000000e+00
         vertex 7.620000e+01 7.620000e+01 0.000000e+00
      endloop
   endfacet
   facet normal 0.000000e+00 0.000000e+00 -1.000000e+00
      outer loop
         vertex 7.620000e+01 7.620000e+01 0.000000e+00
         vertex 8.189443e+01 1.521869e+02 0.000000e+00
         vertex 9.315610e+01 1.504895e+02 0.000000e+00
      endloop
   endfacet
   facet normal 0.000000e+00 0.000000e+00 -1.000000e+00
      outer loop
         vertex 7.620000e+01 7.620000e+01 0.000000e+00
         vertex 9.315610e+01 1.504895e+02 0.000000e+00
         vertex 1.040390e+02 1.471326e+02 0.000000e+00
      endloop
   endfacet
   facet normal 0.000000e+00 0.000000e+00 -1.000000e+00
      outer loop
         vertex 3.810000e+01 1.421911e+02 0.000000e+00
         vertex 4.836101e+01 1.471326e+02 0.000000e+00
         vertex 7.620000e+01 7.620000e+01 0.000000e+00
      endloop
   endfacet
   facet normal 0.000000e+00 0.000000e+00 -1.000000e+00
      outer loop
         vertex 7.620000e+01 7.620000e+01 0.000000e+00
         vertex 4.836101e+01 1.471326e+02 0.000000e+00
         vertex 5.924391e+01 1.504895e+02 0.000000e+00
      endloop
   endfacet
   facet normal 0.000000e+00 0.000000e+00 -1.000000e+00
      outer loop
         vertex 7.620000e+01 7.620000e+01 0.000000e+00
         vertex 5.924391e+01 1.504895e+02 0.000000e+00
         vertex 7.050557e+01 1.521869e+02 0.000000e+00
      endloop
   endfacet
   facet normal 0.000000e+00 0.000000e+00 -1.000000e+00
      outer loop
         vertex 1.324061e+01 1.191250e+02 0.000000e+00
         vertex 2.034145e+01 1.280292e+02 0.000000e+00
         vertex 7.620000e+01 7.620000e+01 0.000000e+00
      endloop
   endfacet
   facet normal 0.000000e+00 0.000000e+00 -1.000000e+00
      outer loop
         vertex 7.620000e+01 7.620000e+01 0.000000e+00
         vertex 2.034145e+01 1.280292e+02 0.000000e+00
         vertex 2.869008e+01 1.357756e+02 0.000000e+00
      endloop
   endfacet
   facet normal 0.000000e+00 0.000000e+00 -1.000000e+00
      outer loop
         vertex 7.620000e+01 7.620000e+01 0.000000e+00
         vertex 2.869008e+01 1.357756e+02 0.000000e+00
         vertex 3.810000e+01 1.421911e+02 0.000000e+00
      endloop
   endfacet
   facet normal 0.000000e+00 0.000000e+00 -1.000000e+00
      outer loop
         vertex 8.510947e-01 8.755702e+01 0.000000e+00
         vertex 3.385350e+00 9.866035e+01 0.000000e+00
         vertex 7.620000e+01 7.620000e+01 0.000000e+00
      endloop
   endfacet
   facet normal 0.000000e+00 0.000000e+00 -1.000000e+00
      outer loop
         vertex 7.620000e+01 7.620000e+01 0.000000e+00
         vertex 3.385350e+00 9.866035e+01 0.000000e+00
         vertex 7.546172e+00 1.092619e+02 0.000000e+00
      endloop
   endfacet
   facet normal 0.000000e+00 0.000000e+00 -1.000000e+00
      outer loop
         vertex 7.620000e+01 7.620000e+01 0.000000e+00
         vertex 7.546172e+00 1.092619e+02 0.000000e+00
         vertex 1.324061e+01 1.191250e+02 0.000000e+00
      endloop
   endfacet
   facet normal 0.000000e+00 0.000000e+00 -1.000000e+00
      outer loop
         vertex 3.385350e+00 5.373966e+01 0.000000e+00
         vertex 8.510947e-01 6.484298e+01 0.000000e+00
         vertex 7.620000e+01 7.620000e+01 0.000000e+00
      endloop
   endfacet
   facet normal -0.000000e+00 0.000000e+00 -1.000000e+00
      outer loop
         vertex 7.620000e+01 7.620000e+01 0.000000e+00
         vertex 8.510947e-01 6.484298e+01 0.000000e+00
         vertex 0.000000e+00 7.620000e+01 0.000000e+00
      endloop
   endfacet
   facet normal 0.000000e+00 0.000000e+00 -1.000000e+00
      outer loop
         vertex 7.620000e+01 7.620000e+01 0.000000e+00
         vertex 0.000000e+00 7.620000e+01 0.000000e+00
         vertex 8.510947e-01 8.755702e+01 0.000000e+00
      endloop
   endfacet
   facet normal 0.000000e+00 0.000000e+00 -1.000000e+00
      outer loop
         vertex 2.034145e+01 2.437084e+01 0.000000e+00
         vertex 1.324061e+01 3.327501e+01 0.000000e+00
         vertex 7.620000e+01 7.620000e+01 0.000000e+00
      endloop
   endfacet
   facet normal 0.000000e+00 0.000000e+00 -1.000000e+00
      outer loop
         vertex 7.620000e+01 7.620000e+01 0.000000e+00
         vertex 1.324061e+01 3.327501e+01 0.000000e+00
         vertex 7.546172e+00 4.313806e+01 0.000000e+00
      endloop
   endfacet
   facet normal 0.000000e+00 0.000000e+00 -1.000000e+00
      outer loop
         vertex 7.620000e+01 7.620000e+01 0.000000e+00
         vertex 7.546172e+00 4.313806e+01 0.000000e+00
         vertex 3.385350e+00 5.373966e+01 0.000000e+00
      endloop
   endfacet
   facet normal 0.000000e+00 0.000000e+00 -1.000000e+00
      outer loop
         vertex 4.836101e+01 5.267419e+00 0.000000e+00
         vertex 3.810000e+01 1.020887e+01 0.000000e+00
         vertex 7.620000e+01 7.620000e+01 0.000000e+00
      endloop
   endfacet
   facet normal 0.000000e+00 0.000000e+00 -1.000000e+00
      outer loop
         vertex 7.620000e+01 7.620000e+01 0.000000e+00
         vertex 3.810000e+01 1.020887e+01 0.000000e+00
         vertex 2.869008e+01 1.662444e+01 0.000000e+00
      endloop
   endfacet
   facet normal 0.000000e+00 0.000000e+00 -1.000000e+00
      outer loop
         vertex 7.620000e+01 7.620000e+01 0.000000e+00
         vertex 2.869008e+01 1.662444e+01 0.000000e+00
         vertex 2.034145e+01 2.437084e+01 0.000000e+00
      endloop
   endfacet
   facet normal 0.000000e+00 0.000000e+00 -1.000000e+00
      outer loop
         vertex 8.189443e+01 2.130717e-01 0.000000e+00
         vertex 7.050557e+01 2.130717e-01 0.000000e+00
         vertex 7.620000e+01 7.620000e+01 0.000000e+00
      endloop
   endfacet
   facet normal 0.000000e+00 0.000000e+00 -1.000000e+00
      outer loop
         vertex 7.620000e+01 7.620000e+01 0.000000e+00
         vertex 7.050557e+01 2.130717e-01 0.000000e+00
         vertex 5.924391e+01 1.910493e+00 0.000000e+00
      endloop
   endfacet
   facet normal 0.000000e+00 0.000000e+00 -1.000000e+00
      outer loop
         vertex 7.620000e+01 7.620000e+01 0.000000e+00
         vertex 5.924391e+01 1.910493e+00 0.000000e+00
         vertex 4.836101e+01 5.267419e+00 0.000000e+00
      endloop
   endfacet
   facet normal -0.000000e+00 0.000000e+00 -1.000000e+00
      outer loop
         vertex 1.143000e+02 1.020887e+01 0.000000e+00
         vertex 1.040390e+02 5.267419e+00 0.000000e+00
         vertex 7.620000e+01 7.620000e+01 0.000000e+00
      endloop
   endfacet
   facet normal 0.000000e+00 0.000000e+00 -1.000000e+00
      outer loop
         vertex 7.620000e+01 7.620000e+01 0.000000e+00
         vertex 1.040390e+02 5.267419e+00 0.000000e+00
         vertex 9.315610e+01 1.910493e+00 0.000000e+00
      endloop
   endfacet
   facet normal 0.000000e+00 0.000000e+00 -1.000000e+00
      outer loop
         vertex 7.620000e+01 7.620000e+01 0.000000e+00
         vertex 9.315610e+01 1.910493e+00 0.000000e+00
         vertex 8.189443e+01 2.130717e-01 0.000000e+00
      endloop
   endfacet
   facet normal -0.000000e+00 0.000000e+00 -1.000000e+00
      outer loop
         vertex 1.391594e+02 3.327501e+01 0.000000e+00
         vertex 1.320586e+02 2.437084e+01 0.000000e+00
         vertex 7.620000e+01 7.620000e+01 0.000000e+00
      endloop
   endfacet
   facet normal 0.000000e+00 0.000000e+00 -1.000000e+00
      outer loop
         vertex 7.620000e+01 7.620000e+01 0.000000e+00
         vertex 1.320586e+02 2.437084e+01 0.000000e+00
         vertex 1.237099e+02 1.662444e+01 0.000000e+00
      endloop
   endfacet
   facet normal 0.000000e+00 0.000000e+00 -1.000000e+00
      outer loop
         vertex 7.620000e+01 7.620000e+01 0.000000e+00
         vertex 1.237099e+02 1.662444e+01 0.000000e+00
         vertex 1.143000e+02 1.020887e+01 0.000000e+00
      endloop
   endfacet
   facet normal -0.000000e+00 0.000000e+00 -1.000000e+00
      outer loop
         vertex 1.515489e+02 6.484298e+01 0.000000e+00
         vertex 1.490147e+02 5.373966e+01 0.000000e+00
         vertex 7.620000e+01 7.620000e+01 0.000000e+00
      endloop
   endfacet
   facet normal 0.000000e+00 0.000000e+00 -1.000000e+00
      outer loop
         vertex 7.620000e+01 7.620000e+01 0.000000e+00
         vertex 1.490147e+02 5.373966e+01 0.000000e+00
         vertex 1.448538e+02 4.313806e+01 0.000000e+00
      endloop
   endfacet
   facet normal 0.000000e+00 0.000000e+00 -1.000000e+00
      outer loop
         vertex 7.620000e+01 7.620000e+01 0.000000e+00
         vertex 1.448538e+02 4.313806e+01 0.000000e+00
         vertex 1.391594e+02 3.327501e+01 0.000000e+00
      endloop
   endfacet
endsolid