solid plate
 facet normal -1 0 0
  outer loop
   vertex 20 0 2.54
   vertex 20 152.4 2.54
   vertex 20 0 0
  endloop
 endfacet
 facet normal -1 0 0
  outer loop
   vertex 20 0 0
   vertex 20 152.4 2.54
   vertex 20 152.4 0
  endloop
 endfacet
 facet normal -0 -1 -0
  outer loop
   vertex 426.4 0 2.54
   vertex 20 0 2.54
   vertex 426.4 0 0
  endloop
 endfacet
 facet normal 0 -1 0
  outer loop
   vertex 426.4 0 0
   vertex 20 0 2.54
   vertex 20 0 0
  endloop
 endfacet
 facet normal 1 0 0
  outer loop
   vertex 426.4 152.4 2.54
   vertex 426.4 0 2.54
   vertex 426.4 152.4 0
  endloop
 endfacet
 facet normal 1 0 0
  outer loop
   vertex 426.4 152.4 0
   vertex 426.4 0 2.54
   vertex 426.4 0 0
  endloop
 endfacet
 facet normal -0 1 0
  outer loop
   vertex 20 152.4 2.54
   vertex 426.4 152.4 2.54
   vertex 20 152.4 0
  endloop
 endfacet
 facet normal 0 1 0
  outer loop
   vertex 20 152.4 0
   vertex 426.4 152.4 2.54
   vertex 426.4 152.4 0
  endloop
 endfacet
 facet normal 0 -0 1
  outer loop
   vertex 426.4 0 2.54
   vertex 426.4 152.4 2.54
   vertex 20 0 2.54
  endloop
 endfacet
 facet normal 0 0 1
  outer loop
   vertex 20 0 2.54
   vertex 426.4 152.4 2.54
   vertex 20 152.4 2.54
  endloop
 endfacet
 facet normal -0 -0 -1
  outer loop
   vertex 426.4 152.4 0
   vertex 426.4 0 0
   vertex 20 152.4 0
  endloop
 endfacet
 facet normal 0 0 -1
  outer loop
   vertex 20 152.4 0
   vertex 426.4 0 0
   vertex 20 0 0
  endloop
 endfacet
endsolid plate
